<?xml version="1.0" encoding="iso-8859-1"?>
<!-- Generator: Adobe Illustrator 16.0.0, SVG Export Plug-In . SVG Version: 6.00 Build 0)  -->
<!DOCTYPE svg PUBLIC "-//W3C//DTD SVG 1.1//EN" "http://www.w3.org/Graphics/SVG/1.1/DTD/svg11.dtd">
<svg version="1.1" id="Capa_1" xmlns="http://www.w3.org/2000/svg" xmlns:xlink="http://www.w3.org/1999/xlink" x="0px" y="0px"
	 width="41.432px" height="41.432px" viewBox="0 0 41.432 41.432" style="enable-background:new 0 0 41.432 41.432;"
	 xml:space="preserve">
<g>
	<path d="M27.768,0H13.662c-0.345,0-0.625,0.28-0.625,0.625v12.413H0.625C0.28,13.038,0,13.318,0,13.663v14.104
		c0,0.346,0.28,0.625,0.625,0.625h12.412v12.414c0,0.346,0.28,0.625,0.625,0.625h14.105c0.346,0,0.625-0.279,0.625-0.625V28.393
		h12.414c0.346,0,0.625-0.279,0.625-0.625V13.663c0-0.345-0.279-0.625-0.625-0.625H28.393V0.625C28.393,0.281,28.113,0,27.768,0z
		 M40.182,14.288v12.854H27.768c-0.344,0-0.625,0.281-0.625,0.625v12.414H14.287V27.768c0-0.344-0.28-0.625-0.625-0.625H1.25V14.288
		h12.412c0.345,0,0.625-0.28,0.625-0.625V1.25h12.855v12.413c0,0.345,0.281,0.625,0.625,0.625H40.182z"/>
</g>
<g>
</g>
<g>
</g>
<g>
</g>
<g>
</g>
<g>
</g>
<g>
</g>
<g>
</g>
<g>
</g>
<g>
</g>
<g>
</g>
<g>
</g>
<g>
</g>
<g>
</g>
<g>
</g>
<g>
</g>
</svg>
